<svg xmlns="http://www.w3.org/2000/svg" width="16" height="16" viewBox="0 0 16 16" fill="none">
    <rect x="7" y="0" width="2" height="2" fill="currentColor" />
    <rect x="7" y="2" width="2" height="2" fill="currentColor" />
    <rect x="5" y="4" width="2" height="2" fill="currentColor" />
    <rect x="7" y="4" width="2" height="2" fill="currentColor" />
    <rect x="9" y="4" width="2" height="2" fill="currentColor" />
    <rect x="0" y="6" width="2" height="2" fill="currentColor" />
    <rect x="2" y="6" width="2" height="2" fill="currentColor" />
    <rect x="4" y="6" width="2" height="2" fill="currentColor" />
    <rect x="6" y="6" width="2" height="2" fill="currentColor" />
    <rect x="8" y="6" width="2" height="2" fill="currentColor" />
    <rect x="10" y="6" width="2" height="2" fill="currentColor" />
    <rect x="12" y="6" width="2" height="2" fill="currentColor" />
    <rect x="14" y="6" width="2" height="2" fill="currentColor" />
    <rect x="5" y="8" width="2" height="2" fill="currentColor" />
    <rect x="7" y="8" width="2" height="2" fill="currentColor" />
    <rect x="9" y="8" width="2" height="2" fill="currentColor" />
    <rect x="3" y="10" width="2" height="2" fill="currentColor" />
    <rect x="7" y="10" width="2" height="2" fill="currentColor" />
    <rect x="11" y="10" width="2" height="2" fill="currentColor" />
    <rect x="1" y="12" width="2" height="2" fill="currentColor" />
    <rect x="7" y="12" width="2" height="2" fill="currentColor" />
    <rect x="13" y="12" width="2" height="2" fill="currentColor" />
    <rect x="7" y="14" width="2" height="2" fill="currentColor" />
</svg>