<svg width="4830" height="4077" viewBox="0 0 4830 4077" fill="none" xmlns="http://www.w3.org/2000/svg">
<path fill-rule="evenodd" clip-rule="evenodd" d="M2350.72 414.778C2365.98 412.455 2381.24 410.131 2396.49 407.808C2412.21 406.413 2427.93 405.019 2443.65 403.625C2459.83 403.16 2476 402.696 2492.18 402.23C2509.34 402.696 2526.49 403.16 2543.65 403.625C2560.26 405.019 2576.87 406.413 2593.48 407.808C2609.55 410.131 2625.62 412.455 2641.69 414.778C2657.22 418.031 2672.75 421.284 2688.27 424.538C2703.26 428.721 2718.24 432.903 2733.23 437.086C2747.67 442.199 2762.11 447.311 2776.56 452.423C2790.46 458.464 2804.36 464.506 2818.26 470.548C2831.61 477.519 2844.97 484.491 2858.33 491.461C2871.14 499.362 2883.96 507.263 2896.77 515.164C2909.05 523.994 2921.32 532.824 2933.59 541.654C2945.32 551.414 2957.05 561.173 2968.78 570.933C2979.97 581.622 2991.16 592.311 3002.35 603C3012.81 614.452 3023.27 625.904 3033.73 637.356C3043.28 649.404 3052.83 661.452 3062.39 673.5C3071.03 686.145 3079.67 698.789 3088.31 711.433C3096.05 724.673 3103.78 737.914 3111.51 751.154C3118.33 764.99 3125.16 778.827 3131.98 792.663C3137.89 807.096 3143.81 821.528 3149.72 835.961C3154.72 850.99 3159.73 866.018 3164.73 881.047C3168.82 896.671 3172.92 912.297 3177.01 927.921C3180.19 944.142 3183.38 960.363 3186.56 976.583C3188.84 993.4 3191.11 1010.22 3193.38 1027.03C3194.75 1044.45 3196.11 1061.86 3197.48 1079.27C3197.93 1097.28 3198.39 1115.29 3198.84 1133.3C3198.44 1154.46 3198.03 1175.61 3197.62 1196.77C2840.83 1196.77 2484.05 1196.77 2127.26 1196.77C2128.72 1204.5 2130.19 1212.23 2131.66 1219.96C2133.49 1227.42 2135.31 1234.89 2137.14 1242.35C2139.32 1249.54 2141.51 1256.74 2143.7 1263.93C2146.24 1270.86 2148.78 1277.78 2151.33 1284.71C2154.23 1291.37 2157.13 1298.02 2160.04 1304.68C2163.3 1311.07 2166.56 1317.46 2169.82 1323.85C2173.44 1329.97 2177.06 1336.09 2180.68 1342.21C2184.66 1348.06 2188.64 1353.92 2192.62 1359.77C2196.96 1365.35 2201.3 1370.94 2205.64 1376.52C2210.33 1381.84 2215.03 1387.15 2219.73 1392.47C2224.78 1397.52 2229.84 1402.56 2234.89 1407.61C2240.31 1412.39 2245.72 1417.17 2251.14 1421.95C2256.86 1426.4 2262.58 1430.85 2268.3 1435.3C2274.28 1439.36 2280.26 1443.43 2286.24 1447.49C2292.48 1451.17 2298.72 1454.85 2304.95 1458.52C2311.45 1461.81 2317.94 1465.1 2324.43 1468.39C2331.18 1471.3 2337.93 1474.2 2344.69 1477.1C2351.69 1479.62 2358.7 1482.13 2365.71 1484.65C2372.97 1486.78 2380.24 1488.91 2387.5 1491.04C2395.03 1492.78 2402.55 1494.52 2410.07 1496.26C2417.85 1497.61 2425.63 1498.97 2433.41 1500.32C2441.44 1501.29 2449.48 1502.26 2457.52 1503.23C2465.81 1503.81 2474.1 1504.39 2482.4 1504.97C2490.95 1505.16 2499.5 1505.36 2508.05 1505.55C2518.3 1505.25 2528.55 1504.94 2538.81 1504.64C2548.82 1503.74 2558.83 1502.83 2568.84 1501.92C2578.6 1500.41 2588.37 1498.9 2598.14 1497.39C2607.66 1495.27 2617.18 1493.16 2626.71 1491.04C2635.99 1488.32 2645.27 1485.6 2654.55 1482.88C2663.59 1479.55 2672.63 1476.23 2681.66 1472.9C2690.46 1468.97 2699.25 1465.04 2708.05 1461.11C2716.6 1456.58 2725.15 1452.04 2733.7 1447.51C2742.01 1442.37 2750.32 1437.23 2758.63 1432.09C2766.7 1426.35 2774.76 1420.6 2782.83 1414.86C2790.65 1408.51 2798.47 1402.16 2806.3 1395.82C2813.88 1388.86 2821.46 1381.91 2829.04 1374.96C2922.61 1418.9 3016.18 1462.83 3109.75 1506.77C3103.82 1514.86 3097.89 1522.96 3091.97 1531.05C3085.85 1538.78 3079.73 1546.52 3073.61 1554.25C3067.3 1561.63 3060.98 1569 3054.67 1576.38C3048.17 1583.39 3041.67 1590.41 3035.16 1597.42C3028.47 1604.08 3021.77 1610.74 3015.08 1617.4C3008.19 1623.7 3001.3 1630 2994.41 1636.29C2987.33 1642.23 2980.25 1648.17 2973.17 1654.11C2965.9 1659.7 2958.63 1665.28 2951.36 1670.86C2943.89 1676.08 2936.43 1681.3 2928.96 1686.52C2921.31 1691.39 2913.65 1696.25 2905.99 1701.12C2898.15 1705.62 2890.3 1710.13 2882.45 1714.63C2874.41 1718.78 2866.37 1722.92 2858.33 1727.07C2850.06 1730.87 2841.8 1734.67 2833.54 1738.47C2825.02 1741.94 2816.5 1745.41 2807.98 1748.88C2806.9 1749.27 2805.82 1749.66 2804.73 1750.05C2796.32 1746.38 2787.91 1742.7 2779.49 1739.03C2777.72 1738.33 2775.95 1737.63 2774.18 1736.93C2764.54 1733.11 2754.9 1729.29 2745.26 1725.48C2744.92 1725.36 2744.59 1725.24 2744.26 1725.12C2742.61 1724.54 2740.95 1723.95 2739.3 1723.36C2730.11 1720.09 2720.91 1716.82 2711.72 1713.55C2711.41 1713.43 2711.1 1713.32 2710.79 1713.21C2708.7 1712.55 2706.6 1711.89 2704.5 1711.23C2696.01 1708.54 2687.52 1705.86 2679.03 1703.17C2678.06 1702.86 2677.08 1702.55 2676.1 1702.24C2669.41 1700.39 2662.72 1698.53 2656.03 1696.68C2652.76 1695.77 2649.5 1694.87 2646.23 1693.96C2644.55 1693.49 2642.87 1693.03 2641.18 1692.56C2635.64 1691.24 2630.1 1689.91 2624.55 1688.59C2618.38 1687.12 2612.21 1685.64 2606.04 1684.17C2605.42 1684.04 2604.8 1683.92 2604.18 1683.8C2600.37 1683.03 2596.57 1682.27 2592.76 1681.5C2586.23 1680.19 2579.69 1678.88 2573.16 1677.57C2572.33 1677.4 2571.5 1677.24 2570.67 1677.07C2567.32 1676.52 2563.97 1675.98 2560.63 1675.43C2554.28 1674.39 2547.93 1673.36 2541.59 1672.32C2539.42 1671.97 2537.24 1671.61 2535.07 1671.26C2532.76 1670.97 2530.44 1670.68 2528.13 1670.38C2521.89 1669.6 2515.64 1668.81 2509.4 1668.02C2506.02 1667.59 2502.63 1667.17 2499.25 1666.74C2498.79 1666.7 2498.33 1666.66 2497.87 1666.62C2488.5 1665.78 2479.14 1664.94 2469.77 1664.1C2467.58 1663.91 2465.39 1663.71 2463.2 1663.51C2461.61 1663.43 2460.03 1663.35 2458.45 1663.26C2449.39 1662.78 2440.33 1662.29 2431.27 1661.81C2429.82 1661.73 2428.37 1661.65 2426.92 1661.58C2424.71 1661.54 2422.49 1661.5 2420.28 1661.46C2411.19 1661.3 2402.09 1661.14 2393 1660.98C2392.14 1660.96 2391.28 1660.95 2390.42 1660.93C2387.77 1660.99 2385.11 1661.04 2382.46 1661.09C2372.98 1661.29 2363.5 1661.48 2354.01 1661.67C2351.88 1661.72 2349.74 1661.76 2347.6 1661.8C2346.45 1661.88 2345.29 1661.95 2344.13 1662.02C2341.04 1662.21 2337.94 1662.4 2334.85 1662.59C2324.99 1663.2 2315.13 1663.81 2305.27 1664.42C2304.95 1664.45 2304.62 1664.49 2304.3 1664.52C2301.49 1664.81 2298.68 1665.1 2295.87 1665.4C2285.05 1666.52 2274.23 1667.65 2263.41 1668.78C2262.84 1668.86 2262.27 1668.95 2261.69 1669.03C2259.28 1669.39 2256.88 1669.74 2254.47 1670.1C2243.65 1671.69 2232.84 1673.29 2222.03 1674.88C2219.53 1675.36 2217.03 1675.84 2214.54 1676.32C2212.72 1676.67 2210.91 1677.01 2209.09 1677.36C2199.77 1679.15 2190.45 1680.94 2181.13 1682.73C2174.1 1684.39 2167.08 1686.06 2160.06 1687.73C2159.19 1687.93 2158.33 1688.13 2157.47 1688.34C2151.88 1689.66 2146.29 1690.99 2140.7 1692.32C2134.83 1693.98 2128.95 1695.65 2123.08 1697.32C2117.74 1694.07 2112.39 1690.83 2107.04 1687.59C2094.78 1678.92 2082.53 1670.25 2070.27 1661.59C2058.55 1652 2046.82 1642.42 2035.1 1632.84C2023.92 1622.35 2012.73 1611.85 2001.55 1601.36C1991.08 1590.18 1980.62 1579 1970.16 1567.82C1960.61 1556.17 1951.06 1544.53 1941.51 1532.89C1932.86 1520.79 1924.22 1508.69 1915.58 1496.59C1907.85 1484.02 1900.11 1471.46 1892.38 1458.9C1885.56 1445.88 1878.74 1432.85 1871.91 1419.83C1866 1406.35 1860.09 1392.87 1854.17 1379.38C1853.51 1377.55 1852.86 1375.71 1852.2 1373.88C1858.21 1360.5 1864.22 1347.11 1870.23 1333.73C1870.75 1332.38 1871.27 1331.02 1871.79 1329.66C1872.16 1328.7 1872.53 1327.73 1872.9 1326.77C1877.81 1313.99 1882.71 1301.2 1887.61 1288.42C1888.1 1286.92 1888.58 1285.42 1889.06 1283.92C1889.62 1282.2 1890.17 1280.48 1890.72 1278.76C1894.71 1266.39 1898.69 1254.02 1902.68 1241.66C1902.69 1241.61 1902.7 1241.57 1902.72 1241.53C1903.31 1239.3 1903.9 1237.07 1904.49 1234.85C1907.43 1223.73 1910.38 1212.61 1913.32 1201.5C1914.06 1198.69 1914.81 1195.88 1915.55 1193.07C1917.12 1185.62 1918.7 1178.18 1920.27 1170.73C1922.22 1161.5 1924.17 1152.27 1926.11 1143.03C1926.21 1142.43 1926.31 1141.83 1926.4 1141.23C1927.98 1131.41 1929.56 1121.6 1931.14 1111.78C1932.23 1105 1933.32 1098.21 1934.41 1091.43C1936.41 1073.7 1938.42 1055.98 1940.42 1038.25C1941.12 1028.06 1941.82 1017.87 1942.52 1007.69C1943.07 999.623 1943.62 991.561 1944.17 983.5C1944.21 982.002 1944.25 980.505 1944.29 979.008C1944.53 969.747 1944.77 960.487 1945.02 951.227C1945.23 943.21 1945.44 935.192 1945.65 927.176C1945.63 925.868 1945.61 924.56 1945.59 923.252C1945.46 913.524 1945.34 903.797 1945.21 894.07C1945.11 887.187 1945.02 880.306 1944.93 873.424C1944.74 869.762 1944.54 866.101 1944.35 862.438C1943.71 850.45 1943.07 838.461 1942.44 826.473C1942.34 824.607 1942.24 822.74 1942.14 820.874C1942.11 820.564 1942.08 820.254 1942.05 819.943C1940.72 805.874 1939.39 791.803 1938.05 777.733C1937.91 776.224 1937.77 774.714 1937.63 773.205C1937.51 771.979 1937.39 770.753 1937.28 769.527C1937.26 769.425 1937.25 769.323 1937.23 769.221C1934.95 752.74 1932.67 736.258 1930.39 719.776C1930.37 719.645 1930.36 719.513 1930.34 719.381C1930.27 719.019 1930.2 718.657 1930.14 718.295C1928.69 710.431 1927.24 702.567 1925.79 694.703C1930.89 687.397 1935.99 680.093 1941.08 672.789C1950.6 660.918 1960.13 649.049 1969.65 637.178C1980.08 625.786 1990.51 614.393 2000.94 603C2012.05 592.311 2023.16 581.622 2034.28 570.933C2045.85 561.173 2057.42 551.414 2069 541.655C2081.03 532.824 2093.06 523.994 2105.1 515.164C2117.59 507.263 2130.09 499.362 2142.58 491.461C2155.54 484.491 2168.49 477.519 2181.45 470.548C2194.86 464.506 2208.28 458.464 2221.69 452.423C2235.57 447.311 2249.44 442.199 2263.32 437.086C2277.66 432.904 2291.99 428.721 2306.33 424.538C2321.13 421.285 2335.92 418.031 2350.72 414.778ZM2863.22 934.367C2861.24 928.293 2859.26 922.219 2857.28 916.144C2855 910.263 2852.73 904.38 2850.45 898.498C2847.88 892.808 2845.31 887.119 2842.74 881.428C2839.87 875.931 2837 870.433 2834.13 864.935C2830.96 859.629 2827.8 854.323 2824.63 849.018C2821.17 843.904 2817.71 838.79 2814.24 833.677C2810.49 828.755 2806.73 823.834 2802.97 818.912C2798.91 814.183 2794.86 809.454 2790.8 804.724C2786.45 800.187 2782.1 795.65 2777.74 791.112C2773.1 786.767 2768.45 782.423 2763.8 778.077C2758.85 773.924 2753.91 769.771 2748.96 765.618C2743.72 761.657 2738.48 757.696 2733.24 753.735C2727.77 750.032 2722.31 746.328 2716.85 742.623C2711.24 739.242 2705.63 735.86 2700.03 732.478C2694.28 729.419 2688.53 726.359 2682.78 723.299C2676.88 720.562 2670.99 717.824 2665.09 715.086C2659.05 712.671 2653.01 710.255 2646.97 707.84C2640.79 705.746 2634.61 703.653 2628.43 701.559C2622.1 699.788 2615.77 698.016 2609.44 696.245C2602.97 694.796 2596.5 693.347 2590.03 691.897C2583.42 690.77 2576.8 689.642 2570.19 688.515C2563.43 687.71 2556.67 686.905 2549.91 686.1C2543 685.616 2536.1 685.133 2529.2 684.651C2522.15 684.489 2515.1 684.328 2508.06 684.167C2500.4 684.349 2492.75 684.529 2485.1 684.709C2477.61 685.252 2470.12 685.794 2462.63 686.337C2455.29 687.241 2447.96 688.145 2440.62 689.049C2433.45 690.315 2426.27 691.58 2419.1 692.846C2412.08 694.474 2405.06 696.101 2398.04 697.728C2391.18 699.717 2384.32 701.706 2377.46 703.695C2370.76 706.045 2364.06 708.396 2357.36 710.746C2350.82 713.459 2344.27 716.171 2337.73 718.883C2331.34 721.957 2324.96 725.031 2318.58 728.105C2312.35 731.54 2306.12 734.975 2299.89 738.411C2293.83 742.208 2287.76 746.005 2281.69 749.802C2275.78 753.96 2269.87 758.119 2263.96 762.279C2260.32 765.164 2256.68 768.048 2253.04 770.932C2249.45 774.161 2245.85 777.39 2242.26 780.62C2238.71 784.193 2235.16 787.767 2231.62 791.341C2228.11 795.26 2224.61 799.178 2221.11 803.097C2217.65 807.36 2214.19 811.623 2210.73 815.887C2207.32 820.495 2203.91 825.103 2200.49 829.711C2197.13 834.663 2193.76 839.616 2190.39 844.568C2187.07 849.866 2183.74 855.162 2180.42 860.46C2177.15 866.102 2173.87 871.744 2170.59 877.386C2167.36 883.373 2164.13 889.359 2160.89 895.346C2157.71 901.677 2154.52 908.008 2151.33 914.339C2148.19 921.015 2145.05 927.691 2141.91 934.367C2382.35 934.367 2622.78 934.367 2863.22 934.367Z" fill="white"/>
<path fill-rule="evenodd" clip-rule="evenodd" d="M1464.9 2379.36C1467.96 2366.11 1471.02 2352.86 1474.08 2339.62C1477.69 2326.64 1481.31 2313.67 1484.92 2300.7C1489.09 2288 1493.26 2275.3 1497.43 2262.6C1502.16 2250.17 1506.89 2237.74 1511.61 2225.32C1515.11 2217.28 1518.6 2209.24 1522.09 2201.2C1444.88 2054.1 1367.66 1906.99 1290.44 1759.88C1305 1754.74 1319.55 1749.6 1334.11 1744.46C1349.81 1737.87 1365.5 1731.29 1381.2 1724.71C1396.2 1717.65 1411.2 1710.59 1426.2 1703.53C1440.5 1695.99 1454.8 1688.45 1469.1 1680.92C1482.7 1672.9 1496.3 1664.89 1509.9 1656.88C1522.81 1648.39 1535.71 1639.9 1548.61 1631.41C1560.82 1622.44 1573.02 1613.48 1585.23 1604.51C1596.74 1595.07 1608.24 1585.63 1619.75 1576.18C1630.56 1566.26 1641.37 1556.34 1652.17 1546.42C1662.28 1536.03 1672.39 1525.63 1682.5 1515.24C1691.92 1504.36 1701.33 1493.49 1710.74 1482.62C1719.45 1471.27 1728.17 1459.92 1736.88 1448.57C1744.9 1436.74 1752.92 1424.92 1760.94 1413.09C1768.27 1400.79 1775.6 1388.49 1782.93 1376.19C1789.58 1363.41 1796.22 1350.63 1802.86 1337.85C1808.82 1324.59 1814.77 1311.34 1820.72 1298.08C1825.99 1284.35 1831.26 1270.62 1836.52 1256.89C1841.1 1242.68 1845.68 1228.47 1850.26 1214.26C1854.15 1199.58 1858.03 1184.89 1861.92 1170.21C1865.12 1155.05 1868.33 1139.88 1871.53 1124.72C1874.04 1109.08 1876.55 1093.45 1879.06 1077.81C1880.89 1061.69 1882.71 1045.58 1884.53 1029.46C1885.67 1012.87 1886.81 996.281 1887.94 979.69C1888.39 962.622 1888.83 945.554 1889.28 928.486C1889.06 912.198 1888.85 895.91 1888.63 879.621C1887.79 863.697 1886.94 847.773 1886.1 831.849C1884.62 816.289 1883.15 800.729 1881.67 785.169C1879.57 769.974 1877.47 754.778 1875.36 739.583C1872.63 724.752 1869.9 709.92 1867.17 695.089C1863.81 680.622 1860.45 666.154 1857.09 651.687C1853.1 637.585 1849.11 623.482 1845.12 609.38C1840.5 595.641 1835.88 581.903 1831.27 568.164C1826.02 554.79 1820.77 541.416 1815.52 528.042C1809.65 515.032 1803.77 502.022 1797.9 489.012C1791.39 476.367 1784.89 463.721 1778.39 451.075C1771.25 438.794 1764.12 426.513 1756.99 414.231C1749.33 402.417 1741.68 390.602 1734.03 378.788C1725.98 367.543 1717.92 356.298 1709.86 345.053C1701.4 334.378 1692.94 323.702 1684.47 313.027C1675.6 302.921 1666.73 292.815 1657.87 282.709C1648.59 273.173 1639.31 263.637 1630.04 254.101C1620.36 245.133 1610.68 236.166 1600.99 227.199C1590.91 218.801 1580.82 210.404 1570.73 202.007C1560.24 194.179 1549.74 186.351 1539.25 178.523C1528.35 171.265 1517.45 164.006 1506.55 156.748C1495.24 150.06 1483.93 143.371 1472.63 136.681C1460.91 130.562 1449.2 124.443 1437.49 118.323C1425.37 112.773 1413.25 107.224 1401.13 101.673C1388.11 96.6206 1375.09 91.5678 1362.06 86.5146C1347.64 81.8857 1333.22 77.2571 1318.8 72.6284C1302.98 68.4248 1287.15 64.22 1271.33 60.0156C1254.11 56.2358 1236.89 52.456 1219.67 48.6761C1201.04 45.3205 1182.42 41.9653 1163.8 38.61C1143.78 35.6783 1123.76 32.7472 1103.74 29.8162C1082.31 27.309 1060.89 24.8025 1039.47 22.2953C1016.65 20.2131 993.825 18.1305 971.003 16.0475C946.782 14.3898 922.56 12.7314 898.337 11.073C872.715 9.83914 847.094 8.60531 821.472 7.3722C794.45 6.56257 767.429 5.75294 740.407 4.94441C711.985 4.55863 683.563 4.17358 655.141 3.78816C442.456 2.52532 229.771 1.26284 17.0864 0C11.3913 959.187 5.69547 1918.37 0 2877.56C200.511 2878.75 401.022 2879.94 601.533 2881.13C603.623 2529.21 605.712 2177.28 607.802 1825.36C628.078 1824.6 648.353 1823.84 668.629 1823.08C1062.13 2572.75 1455.63 3322.42 1849.13 4072.09C2068.16 4073.43 2287.2 4074.78 2506.24 4076.13C2407.66 3888.32 2309.08 3700.51 2210.5 3512.7C2202.99 3511.63 2195.48 3510.56 2187.97 3509.48C2167.4 3505.23 2146.83 3500.98 2126.26 3496.72C2106.39 3491.25 2086.52 3485.78 2066.65 3480.31C2047.48 3473.63 2028.3 3466.94 2009.13 3460.26C1990.65 3452.36 1972.17 3444.46 1953.69 3436.55C1935.9 3427.44 1918.12 3418.32 1900.34 3409.21C1883.25 3398.87 1866.16 3388.54 1849.07 3378.21C1832.68 3366.66 1816.29 3355.12 1799.9 3343.57C1784.2 3330.81 1768.5 3318.04 1752.81 3305.28C1737.81 3291.3 1722.8 3277.33 1707.8 3263.35C1693.76 3248.42 1679.72 3233.49 1665.68 3218.56C1652.86 3202.95 1640.03 3187.34 1627.21 3171.73C1615.61 3155.43 1604.01 3139.13 1592.41 3122.83C1582.03 3105.85 1571.66 3088.87 1561.28 3071.89C1552.12 3054.22 1542.96 3036.56 1533.8 3018.89C1525.86 3000.54 1517.93 2982.19 1509.99 2963.84C1503.27 2944.8 1496.56 2925.77 1489.84 2906.73C1484.35 2887.01 1478.85 2867.29 1473.36 2847.57C1469.09 2827.17 1464.81 2806.76 1460.54 2786.36C1457.48 2765.27 1454.43 2744.18 1451.38 2723.09C1449.55 2701.31 1447.72 2679.54 1445.89 2657.77C1445.27 2635.31 1444.66 2612.85 1444.05 2590.39C1444.33 2575.77 1444.61 2561.16 1444.89 2546.54C1445.72 2532.2 1446.55 2517.86 1447.39 2503.51C1448.78 2489.44 1450.17 2475.38 1451.56 2461.31C1453.51 2447.51 1455.45 2433.72 1457.4 2419.92C1459.9 2406.4 1462.4 2392.88 1464.9 2379.36ZM891.437 595.929C879.812 595.474 868.188 595.02 856.563 594.565C844.242 594.261 831.92 593.957 819.598 593.652C806.579 593.497 793.561 593.343 780.542 593.189C725.401 592.862 670.261 592.534 615.12 592.206C613.84 807.756 612.561 1023.31 611.281 1238.86C674.298 1239.23 737.316 1239.6 800.334 1239.98C815.913 1239.9 831.492 1239.81 847.071 1239.73C861.821 1239.3 876.572 1238.86 891.322 1238.43C905.244 1237.64 919.166 1236.85 933.088 1236.07C946.182 1234.93 959.276 1233.78 972.37 1232.64C984.635 1231.15 996.9 1229.66 1009.17 1228.16C1020.6 1226.32 1032.04 1224.47 1043.48 1222.62C1054.08 1220.42 1064.69 1218.22 1075.3 1216.02C1085.08 1213.47 1094.86 1210.92 1104.64 1208.36C1113.59 1205.46 1122.54 1202.55 1131.5 1199.65C1139.62 1196.39 1147.74 1193.13 1155.86 1189.87C1163.16 1186.26 1170.45 1182.65 1177.75 1179.03C1184.22 1175.07 1190.68 1171.1 1197.15 1167.14C1202.95 1162.77 1208.75 1158.4 1214.55 1154.02C1219.86 1149.19 1225.16 1144.36 1230.46 1139.53C1235.27 1134.23 1240.07 1128.94 1244.87 1123.65C1249.18 1117.9 1253.48 1112.14 1257.78 1106.39C1261.59 1100.18 1265.39 1093.96 1269.2 1087.75C1272.5 1081.07 1275.8 1074.4 1279.11 1067.72C1281.91 1060.59 1284.72 1053.46 1287.52 1046.32C1289.83 1038.73 1292.13 1031.13 1294.44 1023.53C1296.25 1015.48 1298.05 1007.42 1299.86 999.367C1301.16 990.851 1302.47 982.335 1303.78 973.819C1304.58 964.842 1305.39 955.865 1306.2 946.888C1306.5 937.451 1306.81 928.014 1307.12 918.577C1307.03 912.91 1306.94 907.242 1306.85 901.575C1306.51 896.03 1306.17 890.485 1305.83 884.941C1305.24 879.519 1304.65 874.097 1304.06 868.675C1303.22 863.376 1302.38 858.078 1301.54 852.779C1300.45 847.602 1299.36 842.427 1298.28 837.25C1296.94 832.197 1295.6 827.144 1294.26 822.091C1292.68 817.16 1291.09 812.23 1289.5 807.3C1287.67 802.493 1285.83 797.684 1283.99 792.877C1281.91 788.192 1279.82 783.508 1277.74 778.823C1275.4 774.261 1273.07 769.699 1270.73 765.137C1268.15 760.699 1265.56 756.26 1262.98 751.821C1260.14 747.504 1257.31 743.189 1254.47 738.872C1251.43 734.717 1248.39 730.561 1245.34 726.406C1242.13 722.448 1238.92 718.49 1235.7 714.531C1232.32 710.772 1228.93 707.012 1225.55 703.252C1221.99 699.691 1218.44 696.128 1214.88 692.566C1211.16 689.202 1207.44 685.838 1203.71 682.474C1199.82 679.308 1195.92 676.141 1192.03 672.975C1187.96 670.007 1183.89 667.039 1179.83 664.071C1175.59 661.3 1171.36 658.529 1167.12 655.759C1162.72 653.187 1158.31 650.614 1153.9 648.042C1149.33 645.667 1144.75 643.293 1140.18 640.919C1135.43 638.742 1130.68 636.566 1125.94 634.389C1121.02 632.41 1116.1 630.431 1111.19 628.452C1105.84 626.648 1100.49 624.843 1095.14 623.039C1089.09 621.384 1083.04 619.729 1076.99 618.075C1070.25 616.57 1063.5 615.066 1056.76 613.561C1049.32 612.206 1041.88 610.851 1034.43 609.497C1026.3 608.292 1018.16 607.087 1010.02 605.883C1001.18 604.828 992.346 603.774 983.51 602.72C973.977 601.815 964.444 600.91 954.911 600.006C944.68 599.251 934.45 598.497 924.219 597.742C913.292 597.138 902.364 596.533 891.437 595.929Z" fill="white"/>
<path fill-rule="evenodd" clip-rule="evenodd" d="M3759.85 2902.74C3755.08 2908.46 3750.32 2914.18 3745.55 2919.89C3740.55 2925.37 3735.55 2930.85 3730.55 2936.33C3725.31 2941.57 3720.07 2946.81 3714.83 2952.05C3709.35 2957.06 3703.87 2962.06 3698.4 2967.06C3692.68 2971.82 3686.97 2976.59 3681.25 2981.35C3675.3 2985.88 3669.34 2990.41 3663.39 2994.93C3657.2 2999.22 3651.01 3003.51 3644.82 3007.79C3638.39 3011.84 3631.96 3015.89 3625.53 3019.94C3618.87 3023.75 3612.2 3027.56 3605.54 3031.37C3598.69 3034.91 3591.85 3038.45 3585.01 3041.99C3578.05 3045.22 3571.09 3048.45 3564.13 3051.68C3557.06 3054.6 3549.99 3057.52 3542.91 3060.44C3535.72 3063.06 3528.53 3065.67 3521.34 3068.29C3514.04 3070.6 3506.73 3072.9 3499.43 3075.21C3492.01 3077.21 3484.58 3079.21 3477.16 3081.21C3469.63 3082.9 3462.09 3084.59 3454.55 3086.28C3446.9 3087.67 3439.25 3089.05 3431.6 3090.44C3423.83 3091.51 3416.06 3092.59 3408.29 3093.67C3400.41 3094.44 3392.53 3095.21 3384.64 3095.97C3376.64 3096.44 3368.64 3096.9 3360.64 3097.36C3352.53 3097.51 3344.41 3097.67 3336.3 3097.82C3324.42 3097.48 3312.54 3097.14 3300.66 3096.8C3289.07 3095.78 3277.48 3094.77 3265.89 3093.75C3254.6 3092.05 3243.3 3090.36 3232.01 3088.66C3221.01 3086.29 3210.01 3083.91 3199.01 3081.54C3188.3 3078.49 3177.59 3075.43 3166.89 3072.38C3156.47 3068.65 3146.06 3064.92 3135.64 3061.19C3125.52 3056.78 3115.4 3052.37 3105.28 3047.96C3095.45 3042.87 3085.63 3037.78 3075.8 3032.69C3066.27 3026.93 3056.73 3021.16 3047.2 3015.39C3037.96 3008.95 3028.72 3002.5 3019.48 2996.06C3010.53 2988.93 3001.58 2981.81 2992.64 2974.69C2983.98 2966.89 2975.33 2959.08 2966.68 2951.28C2958.52 2943 2950.37 2934.71 2942.22 2926.42C2934.78 2917.85 2927.33 2909.27 2919.89 2900.69C2913.15 2891.82 2906.42 2882.95 2899.68 2874.08C2893.66 2864.92 2887.63 2855.76 2881.61 2846.6C2876.29 2837.15 2870.97 2827.7 2865.66 2818.24C2861.05 2808.5 2856.44 2798.76 2851.83 2789.01C2847.93 2778.98 2844.04 2768.95 2840.14 2758.91C2836.95 2748.58 2833.76 2738.26 2830.57 2727.93C2828.09 2717.32 2825.6 2706.7 2823.12 2696.08C2821.97 2689.01 2820.82 2681.93 2819.68 2674.86C2903.53 2669.83 2987.38 2664.8 3071.23 2659.77C3072.08 2663.99 3072.94 2668.21 3073.8 2672.44C3075.41 2678.39 3077.01 2684.34 3078.62 2690.3C3080.59 2696.03 3082.56 2701.76 3084.53 2707.49C3086.85 2713.01 3089.17 2718.52 3091.5 2724.03C3094.18 2729.33 3096.87 2734.62 3099.55 2739.91C3102.59 2744.98 3105.63 2750.06 3108.67 2755.13C3112.07 2759.98 3115.46 2764.84 3118.86 2769.69C3122.62 2774.32 3126.37 2778.95 3130.13 2783.59C3134.24 2788 3138.35 2792.41 3142.47 2796.82C3146.85 2800.95 3151.24 2805.07 3155.63 2809.2C3160.21 2812.96 3164.78 2816.72 3169.36 2820.49C3174.13 2823.9 3178.9 2827.3 3183.67 2830.71C3188.63 2833.76 3193.59 2836.8 3198.54 2839.85C3203.69 2842.54 3208.84 2845.23 3213.99 2847.92C3219.33 2850.25 3224.67 2852.58 3230.02 2854.91C3235.55 2856.88 3241.08 2858.86 3246.61 2860.83C3252.33 2862.44 3258.05 2864.06 3263.77 2865.67C3269.68 2866.92 3275.6 2868.18 3281.51 2869.43C3287.61 2870.33 3293.71 2871.23 3299.82 2872.12C3306.11 2872.66 3312.4 2873.2 3318.7 2873.74C3325.18 2873.92 3331.67 2874.1 3338.15 2874.27C3344.64 2874.09 3351.12 2873.91 3357.61 2873.73C3363.91 2873.19 3370.22 2872.64 3376.52 2872.1C3382.64 2871.19 3388.76 2870.29 3394.88 2869.38C3400.81 2868.11 3406.75 2866.84 3412.68 2865.57C3418.43 2863.94 3424.18 2862.31 3429.93 2860.68C3435.5 2858.68 3441.06 2856.69 3446.63 2854.69C3452.01 2852.33 3457.4 2849.98 3462.78 2847.62C3467.98 2844.9 3473.17 2842.18 3478.37 2839.46C3483.39 2836.38 3488.4 2833.3 3493.41 2830.21C3498.24 2826.77 3503.07 2823.32 3507.9 2819.88C3512.55 2816.07 3517.19 2812.26 3521.84 2808.46C3526.3 2804.29 3530.76 2800.12 3535.22 2795.94C3539.41 2791.49 3543.6 2787.03 3547.78 2782.58C3551.61 2777.92 3555.43 2773.25 3559.25 2768.59C3562.71 2763.72 3566.17 2758.85 3569.63 2753.97C3572.72 2748.9 3575.82 2743.82 3578.91 2738.74C3581.64 2733.45 3584.37 2728.16 3587.1 2722.88C3589.47 2717.38 3591.84 2711.89 3594.2 2706.39C3596.21 2700.69 3598.21 2694.99 3600.21 2689.29C3601.85 2683.38 3603.49 2677.47 3605.13 2671.56C3605.95 2667.59 3606.78 2663.62 3607.61 2659.65C3692.56 2664.75 3777.51 2669.85 3862.46 2674.94C3862.1 2677.27 3861.73 2679.6 3861.36 2681.92C3859.88 2689.09 3858.41 2696.25 3856.94 2703.41C3855.13 2710.49 3853.33 2717.58 3851.53 2724.66C3849.4 2731.66 3847.27 2738.66 3845.14 2745.66C3842.68 2752.58 3840.22 2759.49 3837.77 2766.41C3834.98 2773.25 3832.2 2780.09 3829.41 2786.92C3826.3 2793.68 3823.18 2800.44 3820.07 2807.19C3816.63 2813.86 3813.19 2820.54 3809.75 2827.21C3805.98 2833.81 3802.21 2840.4 3798.45 2846.99C3794.39 2853.42 3790.34 2859.86 3786.29 2866.29C3782 2872.48 3777.71 2878.68 3773.42 2884.87C3768.9 2890.83 3764.37 2896.78 3759.85 2902.74Z" fill="white"/>
<path fill-rule="evenodd" clip-rule="evenodd" d="M2986.58 2221.26C2995.11 2214.32 3003.65 2207.39 3012.18 2200.45C3020.93 2194.12 3029.67 2187.79 3038.42 2181.45C3047.37 2175.73 3056.33 2170 3065.28 2164.27C3074.45 2159.14 3083.61 2154.02 3092.77 2148.89C3102.15 2144.37 3111.52 2139.85 3120.9 2135.32C3130.48 2131.4 3140.06 2127.48 3149.65 2123.56C3159.44 2120.25 3169.24 2116.93 3179.03 2113.61C3189.03 2110.9 3199.04 2108.19 3209.04 2105.47C3219.26 2103.36 3229.47 2101.25 3239.68 2099.14C3250.11 2097.63 3260.53 2096.13 3270.95 2094.62C3281.59 2093.71 3292.22 2092.81 3302.85 2091.9C3313.7 2091.6 3324.54 2091.3 3335.39 2091C3343.26 2091.16 3351.14 2091.31 3359.01 2091.47C3366.81 2091.94 3374.61 2092.41 3382.4 2092.88C3390.12 2093.67 3397.84 2094.45 3405.56 2095.23C3413.2 2096.33 3420.83 2097.43 3428.47 2098.53C3436.03 2099.94 3443.59 2101.35 3451.15 2102.76C3458.63 2104.49 3466.11 2106.22 3473.59 2107.94C3480.99 2109.98 3488.39 2112.02 3495.79 2114.06C3503.11 2116.41 3510.43 2118.77 3517.76 2121.12C3525 2123.79 3532.24 2126.45 3539.48 2129.12C3546.65 2132.1 3553.81 2135.08 3560.97 2138.06C3568.05 2141.35 3575.14 2144.65 3582.22 2147.94C3589.23 2151.55 3596.23 2155.16 3603.24 2158.77C3610.07 2162.64 3616.91 2166.52 3623.75 2170.4C3630.33 2174.5 3636.91 2178.6 3643.5 2182.7C3649.82 2187.03 3656.15 2191.35 3662.48 2195.68C3668.55 2200.23 3674.62 2204.78 3680.7 2209.32C3686.52 2214.1 3692.33 2218.87 3698.15 2223.64C3703.71 2228.64 3709.28 2233.64 3714.84 2238.64C3720.15 2243.86 3725.46 2249.08 3730.76 2254.3C3735.82 2259.75 3740.87 2265.19 3745.92 2270.64C3750.72 2276.31 3755.52 2281.98 3760.32 2287.65C3764.86 2293.54 3769.41 2299.44 3773.95 2305.33C3778.24 2311.45 3782.53 2317.57 3786.82 2323.68C3790.85 2330.03 3794.88 2336.37 3798.92 2342.71C3802.66 2349.21 3806.41 2355.7 3810.15 2362.2C3813.57 2368.78 3816.99 2375.36 3820.4 2381.95C3823.5 2388.62 3826.59 2395.28 3829.68 2401.95C3832.45 2408.7 3835.22 2415.46 3837.98 2422.21C3840.42 2429.05 3842.87 2435.89 3845.31 2442.73C3847.42 2449.65 3849.54 2456.58 3851.66 2463.5C3853.45 2470.51 3855.24 2477.52 3857.03 2484.53C3858.49 2491.63 3859.96 2498.73 3861.42 2505.82C3862.11 2510.15 3862.8 2514.49 3863.48 2518.82C3778.56 2523.91 3693.64 2529.01 3608.72 2534.1C3607.58 2528.54 3606.43 2522.97 3605.29 2517.41C3603.68 2511.53 3602.07 2505.64 3600.46 2499.76C3598.5 2494.09 3596.53 2488.42 3594.56 2482.76C3592.24 2477.3 3589.91 2471.85 3587.59 2466.39C3584.9 2461.15 3582.22 2455.91 3579.54 2450.67C3576.5 2445.64 3573.46 2440.61 3570.42 2435.59C3567.02 2430.77 3563.62 2425.96 3560.22 2421.15C3556.47 2416.55 3552.71 2411.95 3548.96 2407.35C3544.85 2402.97 3540.73 2398.58 3536.62 2394.2C3532.23 2390.09 3527.84 2386 3523.45 2381.89C3518.86 2378.15 3514.26 2374.41 3509.67 2370.66C3504.88 2367.28 3500.09 2363.89 3495.3 2360.5C3490.31 2357.47 3485.32 2354.44 3480.34 2351.41C3475.15 2348.74 3469.96 2346.06 3464.77 2343.39C3459.38 2341.07 3454 2338.76 3448.61 2336.44C3443.02 2334.48 3437.44 2332.52 3431.85 2330.56C3426.06 2328.95 3420.28 2327.35 3414.49 2325.74C3408.51 2324.49 3402.52 2323.25 3396.54 2322C3390.35 2321.11 3384.17 2320.22 3377.98 2319.33C3371.6 2318.79 3365.22 2318.26 3358.83 2317.72C3352.25 2317.54 3345.67 2317.36 3339.09 2317.19C3332.65 2317.37 3326.21 2317.55 3319.78 2317.73C3313.52 2318.27 3307.27 2318.81 3301.01 2319.35C3294.94 2320.25 3288.87 2321.15 3282.79 2322.05C3276.9 2323.32 3271.01 2324.58 3265.12 2325.84C3259.41 2327.46 3253.7 2329.09 3247.99 2330.71C3242.47 2332.69 3236.94 2334.68 3231.41 2336.66C3226.07 2339 3220.72 2341.35 3215.38 2343.69C3210.22 2346.39 3205.06 2349.1 3199.89 2351.8C3194.91 2354.87 3189.93 2357.93 3184.95 2361C3180.15 2364.42 3175.35 2367.85 3170.56 2371.28C3165.94 2375.06 3161.32 2378.85 3156.71 2382.63C3152.27 2386.78 3147.84 2390.93 3143.4 2395.08C3139.24 2399.5 3135.08 2403.93 3130.92 2408.36C3127.12 2412.99 3123.32 2417.62 3119.52 2422.25C3116.08 2427.08 3112.64 2431.91 3109.2 2436.74C3106.12 2441.78 3103.05 2446.81 3099.97 2451.84C3097.25 2457.08 3094.54 2462.31 3091.83 2467.55C3089.47 2472.98 3087.12 2478.42 3084.77 2483.86C3082.78 2489.49 3080.79 2495.13 3078.8 2500.77C3077.17 2506.61 3075.54 2512.45 3073.91 2518.29C3072.81 2523.53 3071.71 2528.78 3070.61 2534.02C2986.74 2528.99 2902.87 2523.95 2819 2518.92C2820.79 2508.53 2822.58 2498.15 2824.38 2487.76C2827.18 2476.51 2829.98 2465.25 2832.79 2453.99C2836.39 2443.08 2840 2432.17 2843.6 2421.26C2848.01 2410.7 2852.41 2400.14 2856.82 2389.57C2862.02 2379.36 2867.23 2369.14 2872.44 2358.92C2878.45 2349.05 2884.45 2339.18 2890.46 2329.31C2897.27 2319.79 2904.08 2310.26 2910.89 2300.74C2918.5 2291.56 2926.1 2282.38 2933.71 2273.21C2942.12 2264.37 2950.53 2255.54 2958.95 2246.71C2968.16 2238.23 2977.37 2229.74 2986.58 2221.26Z" fill="white"/>
<path fill-rule="evenodd" clip-rule="evenodd" d="M3332 2683.89C3329.24 2683.47 3326.48 2683.05 3323.72 2682.64C3321.02 2681.94 3318.31 2681.24 3315.6 2680.54C3312.98 2679.58 3310.35 2678.62 3307.72 2677.66C3305.2 2676.44 3302.68 2675.21 3300.16 2673.99C3297.76 2672.52 3295.37 2671.05 3292.97 2669.58C3290.73 2667.88 3288.49 2666.17 3286.25 2664.47C3284.19 2662.55 3282.12 2660.63 3280.05 2658.71C3278.17 2656.59 3276.3 2654.47 3274.43 2652.35C3272.77 2650.06 3271.1 2647.76 3269.44 2645.47C3268.01 2643.01 3266.57 2640.56 3265.14 2638.11C3263.95 2635.52 3262.75 2632.94 3261.56 2630.36C3260.62 2627.66 3259.68 2624.97 3258.74 2622.28C3258.06 2619.5 3257.38 2616.73 3256.7 2613.96C3256.3 2611.13 3255.89 2608.3 3255.48 2605.47C3255.34 2602.62 3255.2 2599.76 3255.06 2596.91C3255.2 2594.05 3255.34 2591.19 3255.48 2588.34C3255.89 2585.51 3256.3 2582.68 3256.7 2579.85C3257.38 2577.08 3258.06 2574.31 3258.74 2571.53C3259.68 2568.84 3260.62 2566.15 3261.56 2563.46C3262.75 2560.87 3263.95 2558.29 3265.14 2555.71C3266.57 2553.25 3268.01 2550.8 3269.44 2548.34C3271.1 2546.05 3272.77 2543.75 3274.43 2541.46C3276.3 2539.34 3278.17 2537.22 3280.05 2535.1C3282.12 2533.18 3284.19 2531.26 3286.25 2529.34C3288.49 2527.64 3290.73 2525.93 3292.97 2524.23C3295.37 2522.76 3297.76 2521.29 3300.16 2519.83C3302.68 2518.6 3305.2 2517.37 3307.72 2516.15C3310.35 2515.19 3312.98 2514.23 3315.6 2513.27C3318.31 2512.57 3321.02 2511.87 3323.72 2511.18C3326.48 2510.76 3329.24 2510.34 3332 2509.93C3334.79 2509.78 3337.58 2509.64 3340.36 2509.5C3343.15 2509.64 3345.94 2509.78 3348.72 2509.93C3351.48 2510.34 3354.24 2510.76 3357 2511.18C3359.71 2511.87 3362.42 2512.57 3365.12 2513.27C3367.75 2514.23 3370.38 2515.19 3373.01 2516.15C3375.53 2517.37 3378.05 2518.6 3380.57 2519.83C3382.96 2521.29 3385.36 2522.76 3387.75 2524.23C3389.99 2525.93 3392.23 2527.64 3394.47 2529.34C3396.54 2531.26 3398.61 2533.18 3400.68 2535.1C3402.55 2537.22 3404.42 2539.34 3406.29 2541.46C3407.96 2543.75 3409.62 2546.05 3411.29 2548.34C3412.72 2550.8 3414.15 2553.25 3415.58 2555.71C3416.78 2558.29 3417.97 2560.87 3419.17 2563.46C3420.11 2566.15 3421.05 2568.84 3421.98 2571.53C3422.66 2574.31 3423.34 2577.08 3424.03 2579.85C3424.43 2582.68 3424.84 2585.51 3425.24 2588.34C3425.38 2591.19 3425.52 2594.05 3425.66 2596.91C3425.52 2599.76 3425.38 2602.62 3425.24 2605.47C3424.84 2608.3 3424.43 2611.13 3424.03 2613.96C3423.34 2616.73 3422.66 2619.5 3421.98 2622.28C3421.05 2624.97 3420.11 2627.66 3419.17 2630.36C3417.97 2632.94 3416.78 2635.52 3415.58 2638.11C3414.15 2640.56 3412.72 2643.01 3411.29 2645.47C3409.62 2647.76 3407.96 2650.06 3406.29 2652.35C3404.42 2654.47 3402.55 2656.59 3400.68 2658.71C3398.61 2660.63 3396.54 2662.55 3394.47 2664.47C3392.23 2666.17 3389.99 2667.88 3387.75 2669.58C3385.36 2671.05 3382.96 2672.52 3380.57 2673.99C3378.05 2675.21 3375.53 2676.44 3373.01 2677.66C3370.38 2678.62 3367.75 2679.58 3365.12 2680.54C3362.42 2681.24 3359.71 2681.94 3357 2682.64C3354.24 2683.05 3351.48 2683.47 3348.72 2683.89C3345.94 2684.03 3343.15 2684.17 3340.36 2684.32C3337.58 2684.17 3334.79 2684.03 3332 2683.89Z" fill="white"/>
<path d="M3361.05 2379.39C3367.93 2380.44 3374.82 2381.49 3381.7 2382.53C3388.45 2384.27 3395.21 2386 3401.96 2387.73C3408.51 2390.14 3415.07 2392.54 3421.62 2394.94C3427.91 2397.99 3434.2 2401.04 3440.5 2404.09C3446.47 2407.76 3452.43 2411.42 3458.41 2415.09C3464 2419.34 3469.59 2423.59 3475.18 2427.84C3480.33 2432.63 3485.49 2437.42 3490.65 2442.21C3495.32 2447.49 3500 2452.78 3504.67 2458.06C3508.82 2463.79 3512.96 2469.52 3517.11 2475.25C3520.69 2481.36 3524.27 2487.48 3527.84 2493.6C3530.82 2500.05 3533.8 2506.49 3536.77 2512.94C3539.12 2519.66 3541.46 2526.37 3543.81 2533.09C3545.5 2540.01 3547.19 2546.93 3548.88 2553.84C3549.9 2560.9 3550.92 2567.96 3551.94 2575.01C3552.29 2582.13 3552.63 2589.26 3552.97 2596.38C3552.63 2603.51 3552.29 2610.63 3551.95 2617.75C3550.92 2624.81 3549.9 2631.86 3548.88 2638.92C3547.19 2645.84 3545.5 2652.76 3543.81 2659.67C3541.46 2666.39 3539.12 2673.11 3536.77 2679.82C3533.8 2686.27 3530.82 2692.72 3527.84 2699.16C3524.27 2705.28 3520.69 2711.4 3517.11 2717.52C3512.96 2723.25 3508.82 2728.97 3504.67 2734.7C3500 2739.99 3495.32 2745.27 3490.65 2750.56C3485.49 2755.35 3480.33 2760.14 3475.18 2764.93C3469.59 2769.18 3464 2773.43 3458.41 2777.67C3452.44 2781.34 3446.47 2785.01 3440.5 2788.67C3434.2 2791.72 3427.91 2794.77 3421.62 2797.82C3415.07 2800.23 3408.51 2802.63 3401.96 2805.03C3395.21 2806.76 3388.45 2808.5 3381.7 2810.23C3374.82 2811.28 3367.93 2812.32 3361.05 2813.37C3354.1 2813.72 3347.14 2814.07 3340.19 2814.42C3333.24 2814.07 3326.29 2813.72 3319.34 2813.37C3312.45 2812.32 3305.57 2811.28 3298.68 2810.23C3291.93 2808.5 3285.18 2806.76 3278.43 2805.03C3271.87 2802.63 3265.32 2800.23 3258.77 2797.82C3252.47 2794.77 3246.18 2791.72 3239.89 2788.67C3233.92 2785.01 3227.95 2781.34 3221.98 2777.67C3216.39 2773.43 3210.8 2769.18 3205.21 2764.93C3200.05 2760.14 3194.89 2755.35 3189.74 2750.56C3185.06 2745.27 3180.39 2739.99 3175.71 2734.7C3171.57 2728.97 3167.42 2723.25 3163.27 2717.52C3159.7 2711.4 3156.12 2705.28 3152.54 2699.16C3149.56 2692.72 3146.59 2686.27 3143.61 2679.82C3141.27 2673.11 3138.92 2666.39 3136.58 2659.67C3134.89 2652.76 3133.19 2645.84 3131.5 2638.92C3130.48 2631.86 3129.46 2624.81 3128.44 2617.75C3128.1 2610.63 3127.76 2603.51 3127.41 2596.38C3127.76 2589.26 3128.1 2582.13 3128.44 2575.01C3129.46 2567.96 3130.48 2560.9 3131.5 2553.84C3133.19 2546.93 3134.89 2540.01 3136.58 2533.09C3138.92 2526.37 3141.27 2519.66 3143.61 2512.94C3146.59 2506.5 3149.56 2500.05 3152.54 2493.6C3156.12 2487.48 3159.7 2481.36 3163.27 2475.25C3167.42 2469.52 3171.57 2463.79 3175.71 2458.06C3180.39 2452.78 3185.06 2447.49 3189.74 2442.21C3194.89 2437.42 3200.05 2432.63 3205.21 2427.84C3210.8 2423.59 3216.39 2419.34 3221.98 2415.09C3227.95 2411.42 3233.92 2407.76 3239.89 2404.09C3246.18 2401.04 3252.47 2397.99 3258.77 2394.94C3265.32 2392.54 3271.87 2390.14 3278.43 2387.73C3285.18 2386 3291.93 2384.27 3298.68 2382.53C3305.57 2381.49 3312.45 2380.44 3319.34 2379.39C3326.29 2379.04 3333.24 2378.69 3340.19 2378.34C3347.14 2378.69 3354.1 2379.04 3361.05 2379.39ZM3340.18 2439.19C3335.17 2439.45 3330.16 2439.7 3325.16 2439.95L3325.14 2439.95C3320.18 2440.71 3315.22 2441.46 3310.26 2442.21L3310.25 2442.21C3305.39 2443.46 3300.52 2444.71 3295.66 2445.96L3295.65 2445.96C3290.93 2447.7 3286.21 2449.43 3281.48 2451.16L3281.48 2451.16L3281.47 2451.16C3276.94 2453.36 3272.41 2455.56 3267.88 2457.75L3267.87 2457.75L3267.87 2457.76C3263.56 2460.4 3259.26 2463.04 3254.96 2465.68L3254.96 2465.68L3254.95 2465.69C3250.92 2468.75 3246.9 2471.81 3242.87 2474.87L3242.86 2474.88C3239.14 2478.33 3235.43 2481.78 3231.71 2485.23L3231.71 2485.24C3228.34 2489.05 3224.97 2492.86 3221.6 2496.66H3221.6L3221.6 2496.67C3218.61 2500.8 3215.62 2504.93 3212.63 2509.05H3212.63L3212.63 2509.06L3204.89 2522.29L3204.89 2522.3L3198.46 2536.23L3198.45 2536.24C3196.76 2541.08 3195.08 2545.92 3193.39 2550.76L3193.49 2550.79L3193.38 2550.76L3193.38 2550.77C3192.77 2553.26 3192.16 2555.75 3191.55 2558.24C3190.95 2560.74 3190.34 2563.23 3189.73 2565.72H3189.73L3189.72 2565.73C3188.99 2570.81 3188.25 2575.9 3187.52 2580.98H3187.52V2580.99C3187.27 2586.12 3187.02 2591.26 3186.78 2596.39H3186.78L3186.78 2596.4C3187.02 2601.53 3187.27 2606.66 3187.52 2611.79V2611.79L3187.52 2611.81C3188.25 2616.89 3188.99 2621.97 3189.72 2627.05L3189.83 2627.04L3189.72 2627.06L3189.73 2627.07C3190.95 2632.05 3192.16 2637.03 3193.38 2642.02L3193.49 2641.99L3193.38 2642.02L3193.39 2642.03C3195.08 2646.87 3196.76 2651.71 3198.45 2656.54L3198.56 2656.51L3198.45 2656.54L3198.46 2656.55C3200.6 2661.2 3202.75 2665.84 3204.89 2670.49L3204.89 2670.5C3207.47 2674.91 3210.05 2679.31 3212.63 2683.72L3212.72 2683.67L3212.63 2683.72L3212.63 2683.73C3215.62 2687.86 3218.61 2691.99 3221.6 2696.11V2696.11L3221.6 2696.12C3224.97 2699.93 3228.34 2703.74 3231.71 2707.54L3231.79 2707.47L3231.71 2707.54L3231.71 2707.55C3235.43 2711 3239.14 2714.45 3242.86 2717.9L3242.87 2717.91C3246.9 2720.97 3250.92 2724.03 3254.95 2727.09L3255.02 2727.01L3254.95 2727.1L3254.96 2727.1C3259.26 2729.74 3263.56 2732.38 3267.87 2735.03L3267.92 2734.93L3267.87 2735.03L3267.88 2735.03C3272.41 2737.23 3276.94 2739.43 3281.47 2741.62L3281.48 2741.63C3286.21 2743.36 3290.93 2745.09 3295.65 2746.82L3295.66 2746.82C3300.52 2748.07 3305.39 2749.32 3310.25 2750.57V2750.57L3310.26 2750.57C3315.22 2751.33 3320.18 2752.08 3325.14 2752.83L3325.16 2752.83C3330.16 2753.09 3335.17 2753.34 3340.18 2753.59H3340.19C3345.2 2753.34 3350.21 2753.09 3355.22 2752.83L3355.23 2752.83C3360.19 2752.08 3365.15 2751.33 3370.11 2750.57L3370.12 2750.57C3374.99 2749.32 3379.85 2748.07 3384.71 2746.82V2746.82L3384.73 2746.82C3389.45 2745.09 3394.17 2743.36 3398.89 2741.63L3398.9 2741.62C3403.43 2739.43 3407.97 2737.23 3412.5 2735.03L3412.51 2735.03L3425.41 2727.1L3425.42 2727.09C3429.45 2724.03 3433.48 2720.97 3437.51 2717.91L3437.51 2717.9C3441.23 2714.45 3444.95 2711 3448.66 2707.55L3448.66 2707.55L3448.67 2707.54C3452.04 2703.74 3455.4 2699.93 3458.77 2696.12L3458.77 2696.12L3458.78 2696.11C3461.77 2691.99 3464.75 2687.86 3467.74 2683.73L3467.74 2683.73L3467.75 2683.72C3470.32 2679.31 3472.9 2674.91 3475.48 2670.5L3475.48 2670.5L3475.48 2670.49C3477.63 2665.84 3479.77 2661.2 3481.92 2656.55L3481.92 2656.54C3483.61 2651.71 3485.3 2646.87 3486.99 2642.03L3486.99 2642.02C3488.21 2637.03 3489.43 2632.05 3490.65 2627.07L3490.65 2627.05C3491.39 2621.97 3492.12 2616.89 3492.86 2611.81L3492.86 2611.79C3493.1 2606.66 3493.35 2601.53 3493.6 2596.4V2596.39L3492.86 2580.99L3492.86 2580.98L3490.65 2565.73L3490.65 2565.72L3486.99 2550.77L3486.99 2550.76L3481.92 2536.24L3481.92 2536.23L3475.48 2522.3L3475.49 2522.29L3475.48 2522.29L3467.75 2509.06L3467.75 2509.06L3467.74 2509.05L3458.78 2496.67L3458.77 2496.66L3448.67 2485.24L3448.59 2485.31L3448.67 2485.24L3448.66 2485.23L3437.51 2474.88L3437.51 2474.88L3437.51 2474.87L3425.42 2465.69L3425.41 2465.68L3412.51 2457.76L3412.5 2457.75L3398.9 2451.16L3398.89 2451.16L3384.73 2445.96L3384.71 2445.96L3370.12 2442.21L3370.09 2442.32L3370.12 2442.21L3370.11 2442.21L3355.23 2439.95V2439.95H3355.22C3350.21 2439.7 3345.2 2439.45 3340.19 2439.19V2439.19L3340.18 2439.19Z" fill="white"/>
<path fill-rule="evenodd" clip-rule="evenodd" d="M2830.53 2204.66C2826.05 2200.65 2821.57 2196.64 2817.1 2192.63C2803.85 2182.12 2790.61 2171.6 2777.36 2161.09C2763.86 2151.68 2750.35 2142.27 2736.84 2132.87C2723.07 2124.57 2709.3 2116.27 2695.54 2107.96C2681.5 2100.77 2667.47 2093.58 2653.44 2086.38C2639.15 2080.3 2624.86 2074.21 2610.56 2068.12C2596.01 2063.14 2581.45 2058.16 2566.89 2053.18C2552.08 2049.31 2537.26 2045.43 2522.44 2041.56C2507.36 2038.79 2492.28 2036.03 2477.2 2033.26C2461.86 2031.6 2446.51 2029.94 2431.17 2028.28C2415.57 2027.72 2399.96 2027.17 2384.36 2026.62C2371.25 2027 2358.14 2027.37 2345.04 2027.75C2332.28 2028.88 2319.52 2030.02 2306.76 2031.15C2294.35 2033.04 2281.95 2034.93 2269.54 2036.81C2257.48 2039.46 2245.42 2042.1 2233.36 2044.75C2221.64 2048.14 2209.93 2051.54 2198.22 2054.94C2186.86 2059.1 2175.5 2063.25 2164.13 2067.41C2153.12 2072.32 2142.11 2077.22 2131.09 2082.13C2120.43 2087.8 2109.76 2093.46 2099.1 2099.13C2088.78 2105.55 2078.46 2111.97 2068.15 2118.39C2058.18 2125.56 2048.21 2132.74 2038.25 2139.92C2028.63 2147.85 2019.01 2155.78 2009.39 2163.71C2000.12 2172.4 1990.85 2181.08 1981.58 2189.77C1972.86 2199.01 1964.15 2208.25 1955.43 2217.49C1947.47 2227.08 1939.52 2236.67 1931.56 2246.26C1924.36 2256.2 1917.16 2266.14 1909.96 2276.09C1903.51 2286.38 1897.07 2296.68 1890.63 2306.97C1884.94 2317.61 1879.26 2328.26 1873.57 2338.91C1868.65 2349.9 1863.72 2360.9 1858.79 2371.9C1854.63 2383.24 1850.46 2394.59 1846.29 2405.94C1842.88 2417.64 1839.47 2429.34 1836.06 2441.04C1833.4 2453.09 1830.75 2465.14 1828.1 2477.19C1826.2 2489.59 1824.31 2502 1822.41 2514.4C1821.28 2527.15 1820.14 2539.91 1819 2552.66C1818.62 2565.77 1818.24 2578.87 1817.86 2591.98C1818.03 2601.14 1818.2 2610.31 1818.37 2619.48C1818.87 2628.47 1819.38 2637.46 1819.88 2646.46C1820.72 2655.28 1821.56 2664.1 1822.4 2672.92C1823.57 2681.56 1824.75 2690.21 1825.92 2698.86C1827.43 2707.33 1828.94 2715.8 1830.45 2724.28C1832.3 2732.58 1834.15 2740.88 1835.99 2749.18C1838.17 2757.31 1840.36 2765.43 1842.54 2773.56C1845.06 2781.52 1847.57 2789.47 1850.09 2797.43C1852.95 2805.21 1855.8 2812.99 1858.65 2820.77C1861.84 2828.38 1865.03 2835.99 1868.22 2843.6C1871.74 2851.03 1875.27 2858.47 1878.79 2865.9C1882.65 2873.16 1886.52 2880.43 1890.38 2887.69C1894.54 2894.73 1898.71 2901.78 1902.88 2908.83C1907.32 2915.62 1911.77 2922.41 1916.21 2929.2C1920.94 2935.73 1925.66 2942.27 1930.38 2948.8C1935.39 2955.07 1940.39 2961.35 1945.39 2967.63C1950.67 2973.65 1955.95 2979.66 1961.23 2985.68C1966.78 2991.45 1972.34 2997.21 1977.9 3002.97C1983.73 3008.47 1989.57 3013.98 1995.41 3019.48C2001.52 3024.73 2007.63 3029.98 2013.75 3035.23C2020.14 3040.22 2026.53 3045.21 2032.92 3050.2C2039.59 3054.93 2046.26 3059.67 2052.93 3064.4C2059.88 3068.88 2066.82 3073.36 2073.77 3077.83C2081 3082.05 2088.22 3086.27 2095.45 3090.49C2102.88 3094.41 2110.31 3098.33 2117.74 3102.25C2125.31 3105.83 2132.88 3109.41 2140.45 3112.99C2148.16 3116.23 2155.86 3119.47 2163.57 3122.71C2171.41 3125.61 2179.25 3128.51 2187.09 3131.41C2195.07 3133.96 2203.05 3136.52 2211.03 3139.08C2219.14 3141.29 2227.26 3143.51 2235.37 3145.72C2243.62 3147.6 2251.87 3149.48 2260.12 3151.35C2268.51 3152.88 2276.9 3154.42 2285.28 3155.95C2293.81 3157.15 2302.33 3158.34 2310.86 3159.53C2319.52 3160.39 2328.18 3161.24 2336.84 3162.09C2345.63 3162.6 2354.43 3163.11 2363.22 3163.62C2372.16 3163.8 2381.09 3163.97 2390.02 3164.14C2397.65 3164.02 2405.27 3163.9 2412.9 3163.78C2420.41 3163.42 2427.92 3163.06 2435.44 3162.7C2442.84 3162.11 2450.24 3161.51 2457.65 3160.91C2464.94 3160.08 2472.24 3159.24 2479.53 3158.41C2486.71 3157.33 2493.9 3156.26 2501.08 3155.19C2508.15 3153.87 2515.23 3152.56 2522.3 3151.25C2529.26 3149.7 2536.22 3148.15 2543.19 3146.59C2550.04 3144.8 2556.89 3143.01 2563.75 3141.22C2570.49 3139.2 2577.23 3137.17 2583.98 3135.14C2590.61 3132.87 2597.24 3130.6 2603.87 3128.34C2610.4 3125.83 2616.92 3123.32 2623.44 3120.82C2629.85 3118.07 2636.27 3115.33 2642.68 3112.59C2649.09 3109.53 2655.5 3106.47 2661.91 3103.41C2668.42 3099.96 2674.94 3096.51 2681.45 3093.06C2688.07 3089.22 2694.69 3085.37 2701.31 3081.53C2708.04 3077.3 2714.76 3073.07 2721.48 3068.84C2728.31 3064.22 2735.14 3059.59 2741.97 3054.97C2748.91 3049.96 2755.84 3044.95 2762.78 3039.93C2769.82 3034.53 2776.85 3029.12 2783.89 3023.72C2791.04 3017.93 2798.18 3012.13 2805.33 3006.34C2806.03 3005.74 2806.72 3005.14 2807.42 3004.54C2812.68 3011.46 2817.93 3018.37 2823.18 3025.29C2823.87 3026.2 2824.57 3027.12 2825.26 3028.03C2835.22 3039.51 2845.17 3050.98 2855.13 3062.45C2866.03 3073.54 2876.94 3084.62 2887.84 3095.7C2891.5 3099 2895.15 3102.3 2898.81 3105.59C2906.73 3112.73 2914.65 3119.87 2922.56 3127.01C2934.33 3136.38 2946.09 3145.74 2957.86 3155.11C2970.42 3163.89 2982.98 3172.67 2995.54 3181.45C3008.29 3189.17 3021.05 3196.88 3033.8 3204.59C3037.3 3206.4 3040.8 3208.22 3044.3 3210.03C3035.67 3217.54 3027.04 3225.06 3018.4 3232.58C3008.48 3240.79 2998.55 3249.01 2988.62 3257.23C2978.78 3264.94 2968.95 3272.64 2959.11 3280.35C2949.37 3287.55 2939.63 3294.74 2929.89 3301.94C2920.24 3308.62 2910.6 3315.3 2900.95 3321.99C2891.4 3328.16 2881.85 3334.33 2872.3 3340.5C2862.84 3346.17 2853.38 3351.83 2843.92 3357.49C2834.56 3362.64 2825.2 3367.79 2815.84 3372.94C2806.57 3377.57 2797.3 3382.21 2788.03 3386.85C2778.86 3390.98 2769.68 3395.1 2760.51 3399.23C2751.27 3402.94 2742.04 3406.65 2732.81 3410.36C2723.36 3413.75 2713.91 3417.13 2704.46 3420.52C2694.79 3423.59 2685.13 3426.65 2675.46 3429.72C2665.58 3432.46 2655.71 3435.2 2645.83 3437.94C2635.73 3440.36 2625.64 3442.78 2615.54 3445.2C2605.23 3447.3 2594.92 3449.39 2584.61 3451.49C2574.09 3453.26 2563.56 3455.04 2553.04 3456.81C2542.3 3458.26 2531.56 3459.72 2520.82 3461.17C2509.86 3462.3 2498.91 3463.43 2487.96 3464.55C2476.79 3465.36 2465.62 3466.17 2454.45 3466.97C2443.06 3467.46 2431.68 3467.94 2420.29 3468.43C2408.69 3468.59 2397.09 3468.75 2385.49 3468.91C2364.23 3468.34 2342.96 3467.77 2321.7 3467.2C2301.09 3465.49 2280.48 3463.78 2259.87 3462.06C2239.91 3459.21 2219.96 3456.36 2200 3453.51C2180.7 3449.51 2161.39 3445.52 2142.09 3441.53C2123.44 3436.4 2104.79 3431.26 2086.13 3426.13C2068.14 3419.85 2050.14 3413.58 2032.14 3407.3C2014.8 3399.89 1997.45 3392.47 1980.11 3385.06C1963.41 3376.5 1946.72 3367.94 1930.03 3359.39C1913.99 3349.69 1897.95 3339.99 1881.91 3330.3C1866.53 3319.46 1851.14 3308.62 1835.76 3297.78C1821.02 3285.8 1806.29 3273.82 1791.56 3261.84C1777.48 3248.72 1763.4 3235.61 1749.32 3222.49C1736.14 3208.47 1722.96 3194.46 1709.78 3180.45C1697.74 3165.8 1685.71 3151.14 1673.68 3136.49C1662.79 3121.19 1651.9 3105.9 1641.01 3090.6C1631.27 3074.66 1621.53 3058.72 1611.79 3042.78C1603.19 3026.2 1594.6 3009.62 1586 2993.04C1578.55 2975.81 1571.1 2958.59 1563.65 2941.36C1557.35 2923.5 1551.04 2905.63 1544.74 2887.76C1539.58 2869.25 1534.43 2850.74 1529.27 2832.23C1525.26 2813.08 1521.25 2793.93 1517.23 2774.78C1514.37 2754.98 1511.5 2735.19 1508.64 2715.39C1506.92 2694.96 1505.2 2674.52 1503.48 2654.08C1502.91 2633 1502.33 2611.92 1501.76 2590.85C1502.02 2577.13 1502.28 2563.41 1502.54 2549.69C1503.33 2536.23 1504.11 2522.76 1504.89 2509.3C1506.2 2496.1 1507.5 2482.89 1508.81 2469.69C1510.63 2456.74 1512.46 2443.79 1514.29 2430.84C1516.64 2418.15 1518.98 2405.46 1521.33 2392.77C1524.2 2380.34 1527.07 2367.9 1529.94 2355.47C1533.34 2343.29 1536.73 2331.11 1540.12 2318.94C1544.04 2307.02 1547.95 2295.1 1551.86 2283.18C1556.3 2271.51 1560.74 2259.85 1565.17 2248.19C1570.13 2236.78 1575.09 2225.38 1580.05 2213.97C1585.53 2202.82 1591.01 2191.67 1596.49 2180.52C1602.49 2169.63 1608.49 2158.74 1614.49 2147.85C1620.98 2137.26 1627.47 2126.67 1633.96 2116.08C1640.9 2105.85 1647.84 2095.61 1654.78 2085.38C1662.17 2075.49 1669.56 2065.61 1676.95 2055.72C1684.79 2046.19 1692.63 2036.65 1700.47 2027.12C1708.77 2017.94 1717.06 2008.76 1725.35 1999.58C1734.1 1990.75 1742.84 1981.92 1751.59 1973.08C1760.78 1964.61 1769.98 1956.13 1779.17 1947.65C1788.82 1939.52 1798.46 1931.39 1808.11 1923.26C1818.21 1915.49 1828.3 1907.71 1838.4 1899.94C1848.95 1892.51 1859.5 1885.09 1870.05 1877.66C1881.04 1870.59 1892.04 1863.52 1903.04 1856.44C1914.49 1849.72 1925.94 1843 1937.39 1836.28C1949.15 1830 1960.9 1823.73 1972.65 1817.46C1984.55 1811.73 1996.45 1806 2008.35 1800.27C2020.4 1795.09 2032.45 1789.91 2044.5 1784.73C2056.7 1780.09 2068.9 1775.45 2081.1 1770.82C2093.44 1766.72 2105.79 1762.63 2118.14 1758.54C2130.64 1755 2143.14 1751.45 2155.64 1747.9C2168.28 1744.9 2180.93 1741.9 2193.58 1738.9C2206.38 1736.45 2219.17 1733.99 2231.97 1731.54C2244.92 1729.63 2257.86 1727.72 2270.81 1725.81C2283.91 1724.45 2297 1723.08 2310.1 1721.72C2323.35 1720.9 2336.59 1720.08 2349.84 1719.26C2363.23 1718.99 2376.63 1718.72 2390.02 1718.45C2401.44 1718.65 2412.86 1718.85 2424.28 1719.05C2435.63 1719.66 2446.98 1720.26 2458.33 1720.87C2469.61 1721.88 2480.89 1722.89 2492.17 1723.9C2503.38 1725.31 2514.58 1726.73 2525.79 1728.14C2536.93 1729.96 2548.07 1731.77 2559.2 1733.59C2570.27 1735.81 2581.34 1738.03 2592.4 1740.26C2603.4 1742.88 2614.39 1745.51 2625.39 1748.13C2636.31 1751.16 2647.24 1754.19 2658.16 1757.22C2669.02 1760.65 2679.87 1764.09 2690.72 1767.52C2701.51 1771.36 2712.29 1775.19 2723.07 1779.03C2733.79 1783.27 2744.5 1787.51 2755.21 1791.75C2765.85 1796.4 2776.49 1801.04 2787.13 1805.69C2797.62 1810.7 2808.1 1815.72 2818.59 1820.74C2828.83 1826.1 2839.07 1831.45 2849.31 1836.81C2859.3 1842.51 2869.3 1848.21 2879.3 1853.91C2889.05 1859.95 2898.8 1865.99 2908.55 1872.03C2918.06 1878.41 2927.57 1884.79 2937.08 1891.17C2946.34 1897.89 2955.61 1904.61 2964.87 1911.34C2973.89 1918.4 2982.91 1925.46 2991.93 1932.52C3000.71 1939.93 3009.49 1947.33 3018.26 1954.74C3026.8 1962.48 3035.33 1970.23 3043.86 1977.97C3052.15 1986.06 3060.44 1994.14 3068.73 2002.23C3071.85 2005.5 3074.97 2008.77 3078.09 2012.03C3070.89 2015.51 3063.69 2018.98 3056.48 2022.46C3051.64 2025.17 3046.8 2027.88 3041.95 2030.59C3034.54 2034.73 3027.13 2038.88 3019.71 2043.03C3007.74 2050.69 2995.76 2058.35 2983.78 2066.02C2979.25 2069.3 2974.71 2072.58 2970.17 2075.87C2963.01 2081.05 2955.85 2086.24 2948.69 2091.42C2937.28 2100.7 2925.86 2109.97 2914.45 2119.25C2902.13 2130.6 2889.81 2141.95 2877.49 2153.3C2866.24 2165.11 2854.99 2176.92 2843.74 2188.73C2839.34 2194.04 2834.93 2199.35 2830.53 2204.66Z" fill="white"/>
<path fill-rule="evenodd" clip-rule="evenodd" d="M4348.81 2328.2C4345.28 2329.71 4341.76 2331.21 4338.24 2332.72C4334.81 2334.46 4331.39 2336.2 4327.96 2337.94C4324.63 2339.91 4321.3 2341.88 4317.98 2343.85C4314.75 2346.05 4311.52 2348.26 4308.29 2350.46C4305.16 2352.89 4302.03 2355.33 4298.9 2357.76C4295.87 2360.43 4292.83 2363.09 4289.8 2365.76C4286.89 2368.63 4283.99 2371.5 4281.08 2374.37C4278.32 2377.42 4275.57 2380.47 4272.81 2383.52C4270.21 2386.74 4267.61 2389.97 4265.01 2393.2C4262.56 2396.6 4260.11 2400 4257.66 2403.41C4255.36 2406.99 4253.06 2410.57 4250.77 2414.15C4248.62 2417.91 4246.48 2421.67 4244.33 2425.43C4242.34 2429.36 4240.35 2433.3 4238.36 2437.23C4236.52 2441.35 4234.68 2445.46 4232.84 2449.58C4231.15 2453.87 4229.46 2458.16 4227.77 2462.45C4226.24 2466.92 4224.71 2471.39 4223.17 2475.86C4221.79 2480.5 4220.41 2485.15 4219.02 2489.8C4217.8 2494.62 4216.57 2499.44 4215.34 2504.27C4214.76 2507.07 4214.18 2509.88 4213.61 2512.68C4213.08 2515.98 4212.55 2519.29 4212.03 2522.59C4211.55 2526.39 4211.07 2530.19 4210.6 2533.99C4210.17 2538.28 4209.74 2542.58 4209.32 2546.88C4208.94 2551.67 4208.57 2556.46 4208.19 2561.26C4207.86 2566.55 4207.54 2571.84 4207.21 2577.13C4206.94 2582.92 4206.66 2588.71 4206.39 2594.49C4206.16 2600.78 4205.93 2607.06 4205.71 2613.35C4205.53 2620.13 4205.36 2626.91 4205.18 2633.7C4205.06 2640.97 4204.93 2648.25 4204.81 2655.53C4204.73 2663.31 4204.66 2671.09 4204.58 2678.86C4204.56 2687.14 4204.53 2695.41 4204.5 2703.68C4204.5 2835.12 4204.5 2966.56 4204.5 3098C4122.67 3098 4040.84 3098 3959 3098C3959 2770.76 3959 2443.51 3959 2116.27C4040.84 2116.27 4122.67 2116.27 4204.5 2116.27C4204.5 2149.65 4204.5 2183.04 4204.5 2216.42C4209.13 2212.61 4213.76 2208.8 4218.39 2204.99C4222.94 2201.38 4227.49 2197.77 4232.05 2194.15C4236.53 2190.74 4241.01 2187.33 4245.49 2183.91C4249.9 2180.7 4254.3 2177.48 4258.71 2174.26C4263.04 2171.25 4267.38 2168.23 4271.71 2165.21C4275.97 2162.39 4280.24 2159.58 4284.5 2156.76C4288.68 2154.14 4292.87 2151.52 4297.06 2148.9C4301.18 2146.47 4305.29 2144.05 4309.41 2141.63C4313.45 2139.41 4317.49 2137.18 4321.53 2134.96C4325.5 2132.94 4329.47 2130.91 4333.44 2128.89C4337.33 2127.06 4341.23 2125.23 4345.12 2123.41C4348.95 2121.78 4352.77 2120.15 4356.59 2118.52C4360.38 2117.06 4364.18 2115.59 4367.97 2114.13C4371.78 2112.79 4375.59 2111.45 4379.39 2110.11C4383.22 2108.9 4387.04 2107.69 4390.86 2106.48C4394.7 2105.4 4398.54 2104.31 4402.37 2103.23C4406.22 2102.28 4410.08 2101.32 4413.93 2100.37C4417.79 2099.54 4421.66 2098.71 4425.53 2097.88C4429.41 2097.18 4433.29 2096.48 4437.17 2095.78C4441.07 2095.2 4444.96 2094.63 4448.86 2094.06C4452.77 2093.61 4456.68 2093.17 4460.59 2092.72C4464.51 2092.4 4468.44 2092.08 4472.36 2091.76C4476.3 2091.57 4480.24 2091.38 4484.18 2091.19C4488.13 2091.13 4492.09 2091.06 4496.04 2091C4504.06 2091.24 4512.08 2091.47 4520.1 2091.71C4527.92 2092.42 4535.74 2093.12 4543.55 2093.83C4551.16 2095.01 4558.78 2096.19 4566.39 2097.37C4573.79 2099.03 4581.2 2100.68 4588.61 2102.33C4595.81 2104.45 4603.01 2106.58 4610.21 2108.7C4617.21 2111.3 4624.21 2113.89 4631.2 2116.49C4638 2119.56 4644.79 2122.63 4651.58 2125.7C4658.17 2129.24 4664.76 2132.78 4671.34 2136.32C4677.73 2140.33 4684.11 2144.34 4690.49 2148.35C4696.67 2152.84 4702.85 2157.32 4709.03 2161.81C4715 2166.76 4720.97 2171.72 4726.95 2176.68C4732.72 2182.11 4738.49 2187.53 4744.25 2192.96C4748.82 2197.97 4753.38 2202.97 4757.95 2207.98C4762.12 2213.37 4766.29 2218.75 4770.45 2224.14C4774.23 2229.92 4778 2235.69 4781.77 2241.46C4785.14 2247.62 4788.52 2253.78 4791.89 2259.94C4794.87 2266.48 4797.85 2273.02 4800.82 2279.56C4803.4 2286.49 4805.98 2293.41 4808.56 2300.34C4810.75 2307.65 4812.93 2314.96 4815.11 2322.27C4816.9 2329.97 4818.69 2337.66 4820.47 2345.36C4821.86 2353.44 4823.25 2361.52 4824.64 2369.59C4825.63 2378.06 4826.63 2386.52 4827.62 2394.98C4828.21 2403.83 4828.81 2412.68 4829.4 2421.53C4829.6 2430.76 4829.8 2439.99 4830 2449.23C4830 2665.48 4830 2881.74 4830 3098C4748.77 3098 4667.53 3098 4586.3 3098C4586.3 2954.53 4586.3 2811.06 4586.3 2667.59C4586.26 2658.09 4586.23 2648.59 4586.19 2639.08C4586.08 2630.13 4585.97 2621.18 4585.86 2612.22C4585.68 2603.81 4585.5 2595.41 4585.31 2587C4585.06 2579.14 4584.8 2571.28 4584.55 2563.42C4584.22 2556.11 4583.89 2548.79 4583.56 2541.48C4583.16 2534.72 4582.75 2527.95 4582.35 2521.19C4581.88 2514.97 4581.4 2508.75 4580.93 2502.53C4580.38 2496.86 4579.83 2491.19 4579.28 2485.52C4578.66 2480.4 4578.04 2475.27 4577.42 2470.15C4576.72 2465.57 4576.03 2461 4575.33 2456.42C4574.56 2452.39 4573.8 2448.36 4573.03 2444.33C4572.19 2440.85 4571.35 2437.37 4570.51 2433.89C4569.57 2430.74 4568.64 2427.6 4567.71 2424.45C4566.67 2421.43 4565.63 2418.42 4564.59 2415.4C4563.44 2412.51 4562.29 2409.62 4561.14 2406.73C4559.88 2403.97 4558.63 2401.21 4557.37 2398.44C4556 2395.81 4554.64 2393.17 4553.27 2390.54C4551.79 2388.03 4550.32 2385.52 4548.84 2383.02C4547.26 2380.64 4545.68 2378.26 4544.09 2375.88C4542.4 2373.62 4540.71 2371.37 4539.01 2369.12C4537.21 2366.99 4535.41 2364.87 4533.61 2362.74C4531.7 2360.74 4529.79 2358.75 4527.88 2356.75C4525.86 2354.88 4523.85 2353.01 4521.83 2351.14C4519.7 2349.39 4517.57 2347.65 4515.45 2345.91C4513.22 2344.3 4511 2342.69 4508.77 2341.08C4506.47 2339.61 4504.16 2338.14 4501.85 2336.67C4499.45 2335.34 4497.06 2334.01 4494.66 2332.68C4492.18 2331.49 4489.7 2330.3 4487.22 2329.12C4484.65 2328.07 4482.08 2327.02 4479.52 2325.97C4476.86 2325.06 4474.21 2324.15 4471.56 2323.24C4468.82 2322.47 4466.08 2321.7 4463.34 2320.93C4460.52 2320.3 4457.7 2319.67 4454.87 2319.04C4451.96 2318.55 4449.05 2318.06 4446.15 2317.57C4443.15 2317.22 4440.15 2316.87 4437.16 2316.52C4434.08 2316.31 4431 2316.1 4427.92 2315.89C4424.75 2315.82 4421.59 2315.75 4418.42 2315.68C4414.31 2315.8 4410.19 2315.91 4406.08 2316.03C4402.07 2316.38 4398.05 2316.72 4394.04 2317.07C4390.12 2317.65 4386.2 2318.23 4382.29 2318.81C4378.47 2319.62 4374.65 2320.43 4370.83 2321.24C4367.11 2322.29 4363.39 2323.33 4359.67 2324.37C4356.05 2325.65 4352.43 2326.92 4348.81 2328.2Z" fill="white"/>
</svg>
